<mxfile host="65bd71144e">
    <diagram id="q0Sz_UvohejY3R7BB4xI" name="PÃ¡gina-1">
        <mxGraphModel dx="1176" dy="702" grid="1" gridSize="10" guides="1" tooltips="1" connect="1" arrows="1" fold="1" page="1" pageScale="1" pageWidth="827" pageHeight="1169" math="0" shadow="0">
            <root>
                <mxCell id="0"/>
                <mxCell id="1" parent="0"/>
                <mxCell id="5" style="edgeStyle=none;html=1;entryX=0.5;entryY=0;entryDx=0;entryDy=0;exitX=0.5;exitY=1;exitDx=0;exitDy=0;strokeColor=#00FF00;" parent="1" source="2" target="4" edge="1">
                    <mxGeometry relative="1" as="geometry">
                        <mxPoint x="467" y="360" as="targetPoint"/>
                    </mxGeometry>
                </mxCell>
                <mxCell id="13" style="edgeStyle=none;html=1;entryX=0.611;entryY=-0.067;entryDx=0;entryDy=0;entryPerimeter=0;strokeColor=#00FF00;" parent="1" source="2" target="7" edge="1">
                    <mxGeometry relative="1" as="geometry">
                        <mxPoint x="360" y="470" as="targetPoint"/>
                    </mxGeometry>
                </mxCell>
                <mxCell id="2" value="Login User" style="rounded=0;whiteSpace=wrap;html=1;fontStyle=0;strokeColor=#00FF00;" parent="1" vertex="1">
                    <mxGeometry x="370" y="190" width="176" height="60" as="geometry"/>
                </mxCell>
                <mxCell id="6" style="edgeStyle=none;html=1;entryX=0.5;entryY=0;entryDx=0;entryDy=0;exitX=0.5;exitY=1;exitDx=0;exitDy=0;strokeColor=#3333FF;" parent="1" source="3" target="4" edge="1">
                    <mxGeometry relative="1" as="geometry"/>
                </mxCell>
                <mxCell id="12" style="edgeStyle=none;html=1;entryX=0.594;entryY=-0.083;entryDx=0;entryDy=0;entryPerimeter=0;exitX=0.5;exitY=1;exitDx=0;exitDy=0;strokeColor=#3333FF;" parent="1" source="3" target="7" edge="1">
                    <mxGeometry relative="1" as="geometry"/>
                </mxCell>
                <mxCell id="3" value="Register User" style="rounded=0;whiteSpace=wrap;html=1;fontStyle=0;strokeColor=#3333FF;" parent="1" vertex="1">
                    <mxGeometry x="630" y="190" width="176" height="60" as="geometry"/>
                </mxCell>
                <mxCell id="4" value="Show Alert(Message, Type)" style="rounded=0;whiteSpace=wrap;html=1;fontStyle=0;strokeColor=#FFFF66;" parent="1" vertex="1">
                    <mxGeometry x="510" y="480" width="176" height="60" as="geometry"/>
                </mxCell>
                <mxCell id="7" value="ShowNavbarBtns" style="rounded=0;whiteSpace=wrap;html=1;fontStyle=0;strokeColor=#FF3333;" parent="1" vertex="1">
                    <mxGeometry x="250" y="480" width="176" height="60" as="geometry"/>
                </mxCell>
                <mxCell id="8" value="Add Post" style="rounded=0;whiteSpace=wrap;html=1;fontStyle=0" parent="1" vertex="1">
                    <mxGeometry x="370" y="70" width="176" height="60" as="geometry"/>
                </mxCell>
                <mxCell id="10" style="edgeStyle=none;html=1;entryX=0.605;entryY=-0.067;entryDx=0;entryDy=0;entryPerimeter=0;strokeColor=#FF8000;" parent="1" source="9" target="7" edge="1">
                    <mxGeometry relative="1" as="geometry"/>
                </mxCell>
                <mxCell id="11" style="edgeStyle=none;html=1;strokeColor=#FF8000;exitX=0.653;exitY=1;exitDx=0;exitDy=0;exitPerimeter=0;" parent="1" source="9" edge="1">
                    <mxGeometry relative="1" as="geometry">
                        <mxPoint x="600" y="480" as="targetPoint"/>
                    </mxGeometry>
                </mxCell>
                <mxCell id="9" value="Logout User" style="rounded=0;whiteSpace=wrap;html=1;fontStyle=0;strokeColor=#FF8000;" parent="1" vertex="1">
                    <mxGeometry x="60" y="190" width="176" height="60" as="geometry"/>
                </mxCell>
            </root>
        </mxGraphModel>
    </diagram>
</mxfile>